<?xml version="1.0" encoding="utf-8"?>
<!-- Generator: Adobe Illustrator 26.0.1, SVG Export Plug-In . SVG Version: 6.00 Build 0)  -->
<svg version="1.1" xmlns="http://www.w3.org/2000/svg" xmlns:xlink="http://www.w3.org/1999/xlink" x="0px" y="0px"
	 viewBox="0 0 300 300" style="enable-background:new 0 0 300 300;" xml:space="preserve">
<style type="text/css">
	.st0{fill:#DDE7FF;}
	.st1{fill:#C8DBF9;}
	.st2{fill:#4250F1;}
	.st3{fill:none;stroke:#050634;stroke-width:0.5;stroke-miterlimit:10;}
	.st4{fill:#1837EA;}
	.st5{fill:#E76360;}
	.st6{fill:#C65555;}
</style>
<g id="back">
	<path class="st0" d="M266,53c0,0-73.5-12.08-92.25-27.04S67.42,0.39,41.71,22.19S2.04,104.65,4.52,119.32S5,194,3,199
		s7.11,90.09,57.06,93.54S152,271,183,278s91.99-17.26,95.63-42.15C283,206,270,200,271,182c0.65-11.67,27.11-58.49,26.06-76.25
		S297,59,266,53z"/>
	<path class="st1" d="M258,143.72c0,0-6,3.01-10,3.85s3.57,5.43,4.29,5.93C253,154,261,148.45,258,143.72z"/>
	<path class="st1" d="M172.9,225.12c0,0,12.11-18.51,18.6-19.31s36.25,15.01,38.37,25.1c2.13,10.09-9.24,28.34-19.06,30.72
		C201,264,164.8,268.23,172.9,225.12z"/>
	<path class="st1" d="M265.87,107c0,0,28.57-14.31,28.35-16.65c-0.22-2.35,0.72-8.4-4.25-8.37C285,82,258,98.19,258,98.19
		s-4,5.18-2,9.99C258,113,265.87,107,265.87,107z"/>
	<path class="st1" d="M67.17,259.86c0,0,10.65-0.19,16.74-4.53C90,251,97,251,98,254s-3.37,21.91-6.68,22.95
		C88,278,62,276.43,62.5,271.72S64.33,259.72,67.17,259.86z"/>
	<path class="st1" d="M89.99,83.19c0,0-6.64-2.08-8.32,0.86C80,87,84.67,93.78,85.83,93.39C87,93,93.98,85.39,89.99,83.19z"/>
	<path class="st1" d="M95.55,104.92c0,0-13.21,2.92-13.88,0C81,102,61.72,80.19,51.86,79.09s-30.55-4.98-37.7,4.96S6.41,128,8.2,138
		s7.96,22.45,9.38,45.72s19.22,52.91,25.82,56.09c6.6,3.18,62.08-14.27,61.34-34.05s-10.63-48.8-9.19-59.79
		c1.45-10.98,7.33-7.21,8.39-13.1C105,127,104.11,106.85,95.55,104.92z"/>
	<path class="st1" d="M235.26,125.03c0,0-14.38,1.03-19.82,0c-5.44-1.03-59.49,13.42-69.46,18.7c-9.98,5.28-38.09-3.29-42.03-14.01
		C100,119,95.29,98.69,98.15,91.35c2.85-7.35,10.31-8.5,9.58-13.92C107,72,97.29,64.06,98.15,51.03c0.85-13.03,7.15-22.69,14-26.36
		s36.11-2.06,39.48,5.13s18.85,35.05,14.61,43.62S229.52,103.06,235.26,125.03z"/>
</g>
<g id="map">
	<path class="st2" d="M98,109c0,0-7-1-10,5c-3,1-2.08,5-6.04,0C78,109,54,81,32,82c-22,3-23,34-21,41s10,22,8,39c-2,15,17,69,28,70
		s51-11.44,51-37.22S85,138,85,138S114,138,98,109z"/>
	<path class="st2" d="M100,107c0,0,3.68,20.88,6.34,22.94C109,132,119,147,147,137s61.96-21.59,85.48-13.3
		C222.52,118.3,208,116,204,106s-25-17-43-18c-5-1-11-12-9-27s-10-30-22-33s-29.37,17.83-27.18,23.91S106,71,116,73s-3,16-9,15
		S100,107,100,107z"/>
	<path class="st2" d="M176,234c0,0,6-3,7-13s16-16,27-5s15,18,15,23c0,4.12-3,13-9,14c-3,3-18,16-35,1C173,247,176,234,176,234z"/>
	<path class="st2" d="M289.17,84.06c0,0-29.17,13.94-30.17,16.94s-1,6-1,6l33-16C291,91,294.35,88.11,289.17,84.06z"/>
	<path class="st2" d="M66,265c0,0,6-6,9-2s-1,11.6-4.5,10.3C67,272,65,271,66,265z"/>
	<path class="st2" d="M81,264c0,0,7-1,9-7s7,6,1,8S83,268,81,264z"/>
	<path class="st2" d="M83.94,273.45c0,0,1.91-5.08,3.48-3.27c1.57,1.82,1.33,3.27,1.33,3.27S83.89,273.89,83.94,273.45z"/>
	<path class="st2" d="M86.36,84.06c0,0-3.47,2.47-2.42,4.71C85,91,90.8,88.82,89.9,86.41S86.36,84.06,86.36,84.06z"/>
	<path class="st2" d="M248,149h8.57C256.57,149,254,153,248,149z"/>
	<path class="st2" d="M254,147l4-1.83C258,145.17,258,149,254,147z"/>
</g>
<g id="separation">
	<path class="st3" d="M202,236.48c0,0,5.38-12.71,13.44-13.84"/>
	<path class="st3" d="M140.33,49.93c0,0-15.94-10.07-36.39-3.75"/>
	<path class="st3" d="M108.6,67.96c0,0,8.9-12.46,20.9-8.96s10.83-9.07,10.83-9.07s7.42,11.79,11.3,2.18"/>
	<path class="st3" d="M140.33,83.19c0,0,0.42-16.59,11.3-15.14"/>
	<line class="st3" x1="129.5" y1="87.51" x2="116.16" y2="83.19"/>
	<path class="st3" d="M130.98,114.04c0,0,9.15-8.37,15.33-10.45c6.18-2.09,2.82-10.39-2-12.24"/>
	<path class="st3" d="M177.12,111.85c0,0,18.4-4.35,19.39-13.85"/>
	<path class="st3" d="M134.91,116.84c0,0,29.23-7.55,36.91-6.45c7.68,1.11,15.1,6.16,12.89,14.63"/>
	<path class="st3" d="M133.73,122.43c0,0,12.77,10.07,13.27,14.57"/>
	<path class="st3" d="M119.55,108.19c0,0,15.76,5.45,15.35,11.88c-0.41,6.43-25.51,12.82-25.51,12.82c0.9-2.61-4.66-7.27-4.66-7.27"
		/>
	<line class="st3" x1="100.35" y1="102.98" x2="104.74" y2="104.19"/>
	<path class="st3" d="M62.5,225.14c0,0-13.2-0.68-19.1,4.84"/>
	<path class="st3" d="M71.88,202.45c0,0-8.52,12.23-7.45,17.14c1.07,4.91-2.93,5.91-3.93,6.91s0,3.48,0,3.48"/>
	<path class="st3" d="M71,197.15c0,0,1.85,18.53,10.67,22.44"/>
	<path class="st3" d="M37.63,222.63c0,0,7.32-5.04,9.09-6.09"/>
	<path class="st3" d="M56.11,178.95c0,0-5.98,25.44-23.29,34.5"/>
	<path class="st3" d="M28.99,204.48c5.49-10.02,29.77-27.5,29.77-27.5s13.54,12.14,12.14,22.33c-1.4,10.19-26.44,18-26.44,18
		s-5.28-1.37-6.12-7.59"/>
	<path class="st3" d="M38.34,168.21c0,0,16.16,11.29,24.16,8.29s14.04-19.99,28.02-22.99"/>
	<path class="st3" d="M95.55,172.9c0,0-20.05,9.6-33.05,3.6"/>
	<path class="st3" d="M58.76,133.05c0,0,18.74-1.55,26.24,4.95"/>
	<path class="st3" d="M75.81,107c0,0-2.89,28.24-34.1,31.37c0,0,4.36,38.58-18.92,45.35"/>
	<path class="st3" d="M35.27,111.85c0,0-24.16,0.11-24.96,4.38"/>
	<path class="st3" d="M41.71,116.23v22.14c0,0-10.05,13.66-24.13,4.39"/>
	<path class="st3" d="M22.71,86.51c0,0,6.51,28.99,22.4,30.24c15.89,1.25,17.86-11,17.86-11s4.83-3.62,7.93-3.68"/>
	<path class="st3" d="M179.35,230.97c0,0,21.61-1.33,24.38,8.6c2.77,9.93,1.27,20.29,1.27,20.29"/>
</g>
<g id="pin">
	<path class="st4" d="M113.66,119.19l-6.58-9.28c0,0-3.47-11.01,6.58-11.69c10.05-0.68,7.73,9.37,6.57,11.69
		C119.61,111.16,113.66,119.19,113.66,119.19z"/>
	<path class="st4" d="M204.77,116.93l-6.22-6.48c0,0-3.28-7.69,6.22-8.17s7.31,6.55,6.21,8.17
		C210.38,111.32,204.77,116.93,204.77,116.93z"/>
	<path class="st4" d="M135.54,43.19l-5.55-6.71c0,0-2.93-7.96,5.55-8.46s6.52,6.78,5.54,8.46
		C140.56,37.38,135.54,43.19,135.54,43.19z"/>
	<path class="st4" d="M48.19,102.98l-5.52-7.01c0,0-3.61-8.72,3.14-10.22c6.74-1.5,6.31,6.97,5.79,8.99
		C51.31,95.82,48.19,102.98,48.19,102.98z"/>
	<path class="st4" d="M85.52,128.62l-8.66-5.69c0,0-6.6-8.19,1.71-12.1c8.3-3.91,9.67,5.39,9.45,7.74
		C87.9,119.83,85.52,128.62,85.52,128.62z"/>
	<path class="st4" d="M30.47,168.02l-5.25-8.75c0,0-2.51-10.21,6.12-10.45s6.23,8.88,5.14,10.96
		C35.89,160.89,30.47,168.02,30.47,168.02z"/>
	<path class="st4" d="M200.43,235.85l-6.58-9.28c0,0-3.47-11.01,6.58-11.69c10.05-0.68,7.73,9.37,6.57,11.69
		C206.37,227.81,200.43,235.85,200.43,235.85z"/>
	<path class="st4" d="M138.66,104.19l-6.58-9.28c0,0-3.47-11.01,6.58-11.69c10.05-0.68,7.73,9.37,6.57,11.69
		C144.61,96.16,138.66,104.19,138.66,104.19z"/>
	<path class="st4" d="M83.49,203.08l-7.65-8.24c0,0-4.94-10.39,4.55-12.5c9.49-2.11,8.76,8.17,7.99,10.62
		C87.97,194.28,83.49,203.08,83.49,203.08z"/>
	<path class="st5" d="M111.9,119l-6.58-9.28c0,0-3.47-11.01,6.58-11.69c10.05-0.68,7.73,9.37,6.57,11.69
		C117.84,110.97,111.9,119,111.9,119z"/>
	<path class="st5" d="M85.15,128.25l-6.96-6.72c0,0-4.63-8.65,3.66-10.8s7.94,6.61,7.33,8.74C88.85,120.6,85.15,128.25,85.15,128.25
		z"/>
	<path class="st5" d="M83.66,203.19l-6.58-9.28c0,0-3.47-11.01,6.58-11.69s7.73,9.37,6.57,11.69
		C89.61,195.16,83.66,203.19,83.66,203.19z"/>
	<path class="st5" d="M136.66,104.19l-6.58-9.28c0,0-3.47-11.01,6.58-11.69c10.05-0.68,7.73,9.37,6.57,11.69
		C142.61,96.16,136.66,104.19,136.66,104.19z"/>
	<path class="st5" d="M48.55,102.27l-4.91-8.34c0,0-2.15-9.58,6.42-9.43s5.88,8.5,4.72,10.38C54.17,95.89,48.55,102.27,48.55,102.27
		z"/>
	<path class="st5" d="M203.88,116.75L200,106.06c0,0-0.42-11.53,9.45-9.52c9.87,2.02,4.96,11.09,3.22,13.02
		C211.75,110.59,203.88,116.75,203.88,116.75z"/>
	<path class="st5" d="M30.96,168.21L24,161.49c0,0-4.63-8.65,3.66-10.8s7.94,6.61,7.33,8.74C34.67,160.56,30.96,168.21,30.96,168.21
		z"/>
	<path class="st5" d="M134.66,43.19l-6.58-9.28c0,0-3.47-11.01,6.58-11.69c10.05-0.68,7.73,9.37,6.57,11.69
		C140.61,35.16,134.66,43.19,134.66,43.19z"/>
	<path class="st5" d="M198.66,235.19l-6.58-9.28c0,0-3.47-11.01,6.58-11.69c10.05-0.68,7.73,9.37,6.57,11.69
		C204.61,227.16,198.66,235.19,198.66,235.19z"/>
	<path class="st6" d="M197.91,217.32c0,0,4.09-0.32,4.09,3.68s-4,4-4,4s-3.17-0.68-3.09-3.84C195,218,196.82,217.65,197.91,217.32z"
		/>
	<path class="st6" d="M83.69,185.28c0,0,4.09-0.32,4.09,3.68s-4,4-4,4s-3.17-0.68-3.09-3.84C80.78,185.96,82.6,185.61,83.69,185.28z
		"/>
	<path class="st6" d="M111.04,101.51c0,0,4.52-0.36,4.52,4.07c0,4.42-4.42,4.42-4.42,4.42s-3.51-0.76-3.41-4.25
		C107.82,102.26,109.83,101.87,111.04,101.51z"/>
	<path class="st6" d="M136.72,86.51c0,0,4.09-0.32,4.09,3.68s-4,4-4,4s-3.17-0.68-3.09-3.84C133.81,87.19,135.63,86.83,136.72,86.51
		z"/>
	<path class="st6" d="M82.81,112.39c0,0,4.09-0.32,4.09,3.68s-4,4-4,4s-3.17-0.68-3.09-3.84C79.9,113.07,81.72,112.72,82.81,112.39z
		"/>
	<path class="st6" d="M134.81,25.97c0,0,4.09-0.32,4.09,3.68s-4,4-4,4s-3.17-0.68-3.09-3.84C131.9,26.65,133.72,26.29,134.81,25.97z
		"/>
	<path class="st6" d="M206.72,100.51c0,0,4.09-0.32,4.09,3.68s-4,4-4,4s-3.17-0.68-3.09-3.84
		C203.81,101.19,205.63,100.83,206.72,100.51z"/>
	<path class="st6" d="M28.72,153.51c0,0,4.09-0.32,4.09,3.68s-4,4-4,4s-3.17-0.68-3.09-3.84C25.81,154.19,27.63,153.83,28.72,153.51
		z"/>
	<path class="st6" d="M49.72,87.51c0,0,4.09-0.32,4.09,3.68s-4,4-4,4s-3.17-0.68-3.09-3.84C46.81,88.19,48.63,87.83,49.72,87.51z"/>
</g>
</svg>
